<?xml version="1.0" encoding="UTF-8"?>
<svg xmlns="http://www.w3.org/2000/svg" xmlns:xlink="http://www.w3.org/1999/xlink" width="18px" height="18px" viewBox="0 0 18 18" version="1.1">
<g id="surface1">
<path style=" stroke:none;fill-rule:evenodd;fill:rgb(3.529412%,26.27451%,47.45098%);fill-opacity:1;" d="M 5.296875 1.398438 C 4.183594 1.90625 3.207031 2.433594 2.578125 3.160156 C 1.988281 3.839844 1.667969 4.742188 2.019531 6.160156 C 3.695312 11.292969 6.914062 14.691406 11.71875 16.453125 C 12.386719 16.636719 12.914062 16.640625 13.339844 16.542969 C 13.765625 16.441406 14.136719 16.226562 14.46875 15.910156 C 15.15625 15.253906 15.660156 14.203125 16.121094 12.960938 C 16.164062 12.699219 16 12.453125 15.800781 12.394531 L 15.742188 12.378906 L 11.910156 10.476562 C 11.902344 10.480469 11.890625 10.484375 11.875 10.492188 C 11.816406 10.527344 11.722656 10.605469 11.609375 10.753906 C 11.390625 11.054688 11.222656 11.46875 11.160156 11.730469 L 10.953125 12.597656 L 10.15625 12.1875 C 8.375 11.265625 6.777344 9.945312 5.917969 7.675781 L 5.664062 7.003906 L 6.34375 6.773438 L 6.355469 6.769531 C 6.367188 6.765625 6.382812 6.757812 6.402344 6.75 C 6.445312 6.734375 6.511719 6.707031 6.585938 6.671875 C 6.742188 6.605469 6.9375 6.503906 7.121094 6.382812 C 7.308594 6.257812 7.4375 6.132812 7.507812 6.027344 C 7.550781 5.960938 7.5625 5.917969 7.558594 5.882812 L 5.753906 1.800781 L 5.742188 1.75 C 5.667969 1.480469 5.453125 1.378906 5.296875 1.398438 Z M 7.488281 7.785156 C 8.101562 9.027344 9.011719 9.890625 10.105469 10.5625 C 10.210938 10.34375 10.335938 10.128906 10.484375 9.929688 C 10.804688 9.492188 11.453125 8.878906 12.339844 9.144531 L 12.394531 9.160156 L 16.269531 11.082031 C 17.183594 11.394531 17.695312 12.386719 17.476562 13.3125 L 17.453125 13.390625 C 16.984375 14.664062 16.386719 16.011719 15.4375 16.914062 C 14.953125 17.378906 14.367188 17.734375 13.660156 17.898438 C 12.953125 18.0625 12.171875 18.027344 11.3125 17.785156 L 11.285156 17.777344 L 11.261719 17.769531 C 6.007812 15.851562 2.480469 12.101562 0.679688 6.566406 L 0.671875 6.542969 L 0.667969 6.519531 C 0.203125 4.683594 0.609375 3.300781 1.519531 2.25 C 2.378906 1.253906 3.652344 0.617188 4.785156 0.0976562 L 4.835938 0.0742188 L 4.894531 0.0585938 C 5.871094 -0.199219 6.800781 0.425781 7.078125 1.332031 L 8.890625 5.4375 L 8.90625 5.492188 C 9.042969 5.996094 8.90625 6.441406 8.679688 6.785156 C 8.46875 7.113281 8.167969 7.359375 7.902344 7.535156 C 7.761719 7.632812 7.621094 7.714844 7.488281 7.785156 Z M 7.488281 7.785156 "/>
</g>
</svg>
