<?xml version="1.0" encoding="UTF-8"?>
<svg xmlns="http://www.w3.org/2000/svg" xmlns:xlink="http://www.w3.org/1999/xlink" width="20px" height="20px" viewBox="0 0 20 20" version="1.1">
<g id="surface1">
<path style=" stroke:none;fill-rule:evenodd;fill:rgb(3.529412%,26.27451%,47.45098%);fill-opacity:1;" d="M 10 10.539062 L 1.8125 4.398438 L 18.1875 4.398438 Z M 1.332031 14.144531 L 1.332031 5.761719 L 6.605469 9.714844 Z M 1.734375 15.601562 L 18.265625 15.601562 L 12.265625 10.558594 L 10.386719 11.96875 L 10 12.261719 L 9.613281 11.96875 L 7.734375 10.558594 Z M 13.394531 9.714844 L 18.667969 14.144531 L 18.667969 5.761719 Z M 1.332031 3 C 0.597656 3 0 3.625 0 4.398438 L 0 15.601562 C 0 16.375 0.597656 17 1.332031 17 L 18.667969 17 C 19.402344 17 20 16.375 20 15.601562 L 20 4.398438 C 20 3.625 19.402344 3 18.667969 3 Z M 1.332031 3 "/>
</g>
</svg>
