<?xml version="1.0" encoding="UTF-8"?>
<svg xmlns="http://www.w3.org/2000/svg" xmlns:xlink="http://www.w3.org/1999/xlink" width="22px" height="25px" viewBox="0 0 22 25" version="1.1">
<g id="surface1">
<path style=" stroke:none;fill-rule:nonzero;fill:rgb(10.588235%,45.098039%,72.941176%);fill-opacity:1;" d="M 1.84375 22.382812 L 0 0.0429688 L 22 0.0859375 L 20.050781 22.382812 L 11.082031 24.957031 Z M 1.84375 22.382812 "/>
<path style=" stroke:none;fill-rule:nonzero;fill:rgb(10.980392%,53.333333%,78.039216%);fill-opacity:1;" d="M 11.082031 22.800781 L 11.082031 2.167969 L 20.144531 2.199219 L 18.527344 20.65625 Z M 11.082031 22.800781 "/>
<path style=" stroke:none;fill-rule:nonzero;fill:rgb(100%,100%,100%);fill-opacity:1;" d="M 17.894531 4.804688 L 3.957031 4.804688 L 4.332031 7.503906 L 10.945312 7.503906 L 4.4375 10.273438 L 4.816406 12.882812 L 14.40625 12.882812 L 14.058594 16.523438 L 10.8125 17.152344 L 7.867188 16.402344 L 7.640625 14.335938 L 4.9375 14.335938 L 5.300781 18.636719 L 11.097656 20.238281 L 16.65625 18.484375 L 17.363281 10.082031 L 11.492188 10.082031 L 17.894531 7.445312 Z M 17.894531 4.804688 "/>
</g>
</svg>
