<?xml version="1.0" encoding="UTF-8"?>
<svg xmlns="http://www.w3.org/2000/svg" xmlns:xlink="http://www.w3.org/1999/xlink" width="22px" height="18px" viewBox="0 0 22 18" version="1.1">
<g id="surface1">
<path style=" stroke:none;fill-rule:nonzero;fill:rgb(100%,100%,100%);fill-opacity:1;" d="M 8.300781 10.085938 C 8.378906 8.691406 9.0625 7.457031 10.09375 6.585938 C 11.105469 5.730469 12.460938 5.207031 13.953125 5.207031 C 15.433594 5.207031 16.792969 5.730469 17.804688 6.585938 C 18.835938 7.457031 19.515625 8.691406 19.597656 10.085938 C 19.675781 11.515625 19.097656 12.851562 18.089844 13.84375 C 17.058594 14.847656 15.597656 15.480469 13.953125 15.480469 C 12.308594 15.480469 10.839844 14.851562 9.8125 13.84375 C 8.804688 12.851562 8.226562 11.523438 8.308594 10.09375 Z M 8.300781 10.085938 "/>
<path style=" stroke:none;fill-rule:nonzero;fill:rgb(14.901961%,34.117647%,52.941176%);fill-opacity:1;" d="M 11.390625 9.914062 C 11.433594 9.195312 11.78125 8.5625 12.3125 8.117188 C 12.832031 7.675781 13.53125 7.40625 14.296875 7.40625 C 15.058594 7.40625 15.753906 7.675781 16.273438 8.117188 C 16.804688 8.5625 17.15625 9.195312 17.195312 9.914062 C 17.238281 10.648438 16.941406 11.335938 16.421875 11.84375 C 15.890625 12.359375 15.140625 12.6875 14.296875 12.6875 C 13.449219 12.6875 12.695312 12.363281 12.167969 11.84375 C 11.648438 11.335938 11.355469 10.652344 11.394531 9.917969 Z M 11.390625 9.914062 "/>
<path style=" stroke:none;fill-rule:nonzero;fill:rgb(91.764706%,46.27451%,0%);fill-opacity:1;" d="M 6.84375 11.429688 C 6.847656 11.710938 6.9375 12.257812 7.070312 12.683594 C 7.351562 13.585938 7.832031 14.421875 8.496094 15.152344 C 9.179688 15.90625 10.019531 16.515625 10.992188 16.945312 C 12.011719 17.398438 13.117188 17.628906 14.265625 17.628906 C 15.414062 17.628906 16.523438 17.394531 17.542969 16.9375 C 18.511719 16.5 19.355469 15.890625 20.039062 15.132812 C 20.703125 14.394531 21.183594 13.558594 21.460938 12.65625 C 21.605469 12.203125 21.695312 11.738281 21.730469 11.277344 C 21.765625 10.820312 21.75 10.363281 21.6875 9.902344 C 21.558594 9.011719 21.25 8.171875 20.777344 7.414062 C 20.34375 6.710938 19.78125 6.101562 19.117188 5.585938 L 12.40625 0.425781 C 12.402344 0.421875 12.394531 0.414062 12.390625 0.410156 C 11.949219 0.0742188 11.207031 0.0742188 10.726562 0.414062 C 10.234375 0.757812 10.179688 1.324219 10.617188 1.679688 L 10.613281 1.683594 L 13.414062 3.960938 L 4.886719 3.972656 L 4.875 3.972656 C 4.167969 3.972656 3.488281 4.433594 3.355469 5.023438 C 3.21875 5.617188 3.699219 6.113281 4.433594 6.113281 L 4.433594 6.117188 L 8.753906 6.109375 L 1.019531 12.027344 C 1.011719 12.035156 1 12.042969 0.992188 12.046875 C 0.261719 12.605469 0.0273438 13.535156 0.488281 14.121094 C 0.953125 14.714844 1.941406 14.71875 2.679688 14.125 L 6.886719 10.671875 C 6.886719 10.671875 6.824219 11.136719 6.828125 11.414062 Z M 17.683594 12.992188 C 16.816406 13.875 15.601562 14.378906 14.289062 14.378906 C 12.972656 14.382812 11.757812 13.886719 10.886719 13 C 10.464844 12.570312 10.152344 12.074219 9.960938 11.546875 C 9.769531 11.027344 9.699219 10.480469 9.746094 9.925781 C 9.792969 9.382812 9.953125 8.863281 10.210938 8.394531 C 10.464844 7.9375 10.816406 7.519531 11.242188 7.167969 C 12.089844 6.480469 13.160156 6.105469 14.285156 6.105469 C 15.410156 6.105469 16.484375 6.472656 17.328125 7.160156 C 17.757812 7.511719 18.105469 7.925781 18.359375 8.386719 C 18.617188 8.851562 18.78125 9.367188 18.824219 9.914062 C 18.875 10.46875 18.800781 11.019531 18.613281 11.539062 C 18.417969 12.070312 18.109375 12.5625 17.683594 12.992188 Z M 17.683594 12.992188 "/>
</g>
</svg>
